<mxfile host="app.diagrams.net" agent="Mozilla/5.0 (Windows NT 10.0; Win64; x64) AppleWebKit/537.36 (KHTML, like Gecko) Chrome/133.0.0.0 Safari/537.36" version="26.1.0">
  <diagram name="Page-1" id="Rci7B8cbmNCd7NdA90Yb">
    <mxGraphModel dx="2250" dy="2833" grid="1" gridSize="10" guides="1" tooltips="1" connect="1" arrows="1" fold="1" page="1" pageScale="1" pageWidth="850" pageHeight="1100" math="0" shadow="0">
      <root>
        <mxCell id="0" />
        <mxCell id="1" parent="0" />
        <mxCell id="0KsdpX5W5K9sVcAKfS_J-5" value="Fleet" style="swimlane;html=1;fontStyle=0;childLayout=stackLayout;horizontal=1;startSize=26;fillColor=none;horizontalStack=0;resizeParent=1;resizeLast=0;collapsible=1;marginBottom=0;swimlaneFillColor=#ffffff;rounded=0;shadow=0;comic=0;labelBackgroundColor=none;strokeWidth=1;fontFamily=Verdana;fontSize=10;align=center;" vertex="1" parent="1">
          <mxGeometry x="-190" y="-1449" width="170" height="143" as="geometry" />
        </mxCell>
        <mxCell id="0KsdpX5W5K9sVcAKfS_J-6" value="" style="group" vertex="1" connectable="0" parent="0KsdpX5W5K9sVcAKfS_J-5">
          <mxGeometry y="26" width="170" height="26" as="geometry" />
        </mxCell>
        <mxCell id="0KsdpX5W5K9sVcAKfS_J-7" value="" style="whiteSpace=wrap;html=1;aspect=fixed;movable=1;resizable=1;rotatable=1;deletable=1;editable=1;locked=0;connectable=1;" vertex="1" parent="0KsdpX5W5K9sVcAKfS_J-6">
          <mxGeometry x="130" y="3" width="20" height="20" as="geometry" />
        </mxCell>
        <mxCell id="0KsdpX5W5K9sVcAKfS_J-8" value="&lt;div&gt;name&lt;/div&gt;" style="text;html=1;strokeColor=none;fillColor=none;align=left;verticalAlign=top;spacingLeft=4;spacingRight=4;whiteSpace=wrap;overflow=hidden;rotatable=0;points=[[0,0.5],[1,0.5]];portConstraint=eastwest;" vertex="1" parent="0KsdpX5W5K9sVcAKfS_J-6">
          <mxGeometry width="110" height="26" as="geometry" />
        </mxCell>
        <mxCell id="0KsdpX5W5K9sVcAKfS_J-9" value="" style="group" vertex="1" connectable="0" parent="0KsdpX5W5K9sVcAKfS_J-5">
          <mxGeometry y="52" width="170" height="26" as="geometry" />
        </mxCell>
        <mxCell id="0KsdpX5W5K9sVcAKfS_J-10" value="" style="whiteSpace=wrap;html=1;aspect=fixed;movable=1;resizable=1;rotatable=1;deletable=1;editable=1;locked=0;connectable=1;" vertex="1" parent="0KsdpX5W5K9sVcAKfS_J-9">
          <mxGeometry x="130" y="3" width="20" height="20" as="geometry" />
        </mxCell>
        <mxCell id="0KsdpX5W5K9sVcAKfS_J-11" value="&lt;div&gt;board&lt;/div&gt;" style="text;html=1;strokeColor=none;fillColor=none;align=left;verticalAlign=top;spacingLeft=4;spacingRight=4;whiteSpace=wrap;overflow=hidden;rotatable=0;points=[[0,0.5],[1,0.5]];portConstraint=eastwest;" vertex="1" parent="0KsdpX5W5K9sVcAKfS_J-9">
          <mxGeometry width="100" height="26" as="geometry" />
        </mxCell>
        <mxCell id="0KsdpX5W5K9sVcAKfS_J-12" value="" style="group" vertex="1" connectable="0" parent="0KsdpX5W5K9sVcAKfS_J-5">
          <mxGeometry y="78" width="170" height="26" as="geometry" />
        </mxCell>
        <mxCell id="0KsdpX5W5K9sVcAKfS_J-13" value="" style="whiteSpace=wrap;html=1;aspect=fixed;movable=1;resizable=1;rotatable=1;deletable=1;editable=1;locked=0;connectable=1;" vertex="1" parent="0KsdpX5W5K9sVcAKfS_J-12">
          <mxGeometry x="130" y="3" width="20" height="20" as="geometry" />
        </mxCell>
        <mxCell id="0KsdpX5W5K9sVcAKfS_J-14" value="&lt;div&gt;machines&lt;/div&gt;" style="text;html=1;strokeColor=none;fillColor=none;align=left;verticalAlign=top;spacingLeft=4;spacingRight=4;whiteSpace=wrap;overflow=hidden;rotatable=0;points=[[0,0.5],[1,0.5]];portConstraint=eastwest;" vertex="1" parent="0KsdpX5W5K9sVcAKfS_J-12">
          <mxGeometry width="90" height="26" as="geometry" />
        </mxCell>
        <mxCell id="0KsdpX5W5K9sVcAKfS_J-15" value="" style="group" vertex="1" connectable="0" parent="0KsdpX5W5K9sVcAKfS_J-5">
          <mxGeometry y="104" width="170" height="26" as="geometry" />
        </mxCell>
        <mxCell id="0KsdpX5W5K9sVcAKfS_J-16" value="" style="whiteSpace=wrap;html=1;aspect=fixed;movable=1;resizable=1;rotatable=1;deletable=1;editable=1;locked=0;connectable=1;" vertex="1" parent="0KsdpX5W5K9sVcAKfS_J-15">
          <mxGeometry x="130" y="3" width="20" height="20" as="geometry" />
        </mxCell>
        <mxCell id="0KsdpX5W5K9sVcAKfS_J-17" value="&lt;div&gt;sailors&lt;/div&gt;" style="text;html=1;strokeColor=none;fillColor=none;align=left;verticalAlign=top;spacingLeft=4;spacingRight=4;whiteSpace=wrap;overflow=hidden;rotatable=0;points=[[0,0.5],[1,0.5]];portConstraint=eastwest;" vertex="1" parent="0KsdpX5W5K9sVcAKfS_J-15">
          <mxGeometry width="100" height="26" as="geometry" />
        </mxCell>
        <mxCell id="0KsdpX5W5K9sVcAKfS_J-25" value="Board" style="swimlane;html=1;fontStyle=0;childLayout=stackLayout;horizontal=1;startSize=26;fillColor=none;horizontalStack=0;resizeParent=1;resizeLast=0;collapsible=1;marginBottom=0;swimlaneFillColor=#ffffff;rounded=0;shadow=0;comic=0;labelBackgroundColor=none;strokeWidth=1;fontFamily=Verdana;fontSize=10;align=center;" vertex="1" parent="1">
          <mxGeometry x="-90" y="-1640" width="160" height="66" as="geometry" />
        </mxCell>
        <mxCell id="0KsdpX5W5K9sVcAKfS_J-26" value="" style="group" vertex="1" connectable="0" parent="0KsdpX5W5K9sVcAKfS_J-25">
          <mxGeometry y="26" width="160" height="26" as="geometry" />
        </mxCell>
        <mxCell id="0KsdpX5W5K9sVcAKfS_J-27" value="" style="whiteSpace=wrap;html=1;aspect=fixed;movable=1;resizable=1;rotatable=1;deletable=1;editable=1;locked=0;connectable=1;" vertex="1" parent="0KsdpX5W5K9sVcAKfS_J-26">
          <mxGeometry x="130" y="3" width="20" height="20" as="geometry" />
        </mxCell>
        <mxCell id="0KsdpX5W5K9sVcAKfS_J-28" value="&lt;div&gt;fleets&lt;/div&gt;" style="text;html=1;strokeColor=none;fillColor=none;align=left;verticalAlign=top;spacingLeft=4;spacingRight=4;whiteSpace=wrap;overflow=hidden;rotatable=0;points=[[0,0.5],[1,0.5]];portConstraint=eastwest;" vertex="1" parent="0KsdpX5W5K9sVcAKfS_J-26">
          <mxGeometry width="110" height="26" as="geometry" />
        </mxCell>
        <mxCell id="0KsdpX5W5K9sVcAKfS_J-48" value="" style="group;rotation=90;" vertex="1" connectable="0" parent="1">
          <mxGeometry x="140" y="-1530" width="166.07363636363635" height="70" as="geometry" />
        </mxCell>
        <mxCell id="0KsdpX5W5K9sVcAKfS_J-49" value="" style="group;movable=1;resizable=1;rotatable=1;deletable=1;editable=1;locked=0;connectable=1;" vertex="1" connectable="0" parent="0KsdpX5W5K9sVcAKfS_J-48">
          <mxGeometry width="140" height="70" as="geometry" />
        </mxCell>
        <mxCell id="0KsdpX5W5K9sVcAKfS_J-50" value="ArrayList" style="swimlane;html=1;fontStyle=0;childLayout=stackLayout;horizontal=1;startSize=26;fillColor=none;horizontalStack=0;resizeParent=1;resizeLast=0;collapsible=1;marginBottom=0;swimlaneFillColor=#ffffff;rounded=0;shadow=0;comic=0;labelBackgroundColor=none;strokeWidth=1;fontFamily=Verdana;fontSize=10;align=center;movable=1;resizable=1;rotatable=1;deletable=1;editable=1;locked=0;connectable=1;" vertex="1" parent="0KsdpX5W5K9sVcAKfS_J-49">
          <mxGeometry x="6.363636363636364" y="1" width="140.00000000000003" height="70" as="geometry">
            <mxRectangle width="80" height="30" as="alternateBounds" />
          </mxGeometry>
        </mxCell>
        <mxCell id="0KsdpX5W5K9sVcAKfS_J-51" value="" style="group" vertex="1" connectable="0" parent="0KsdpX5W5K9sVcAKfS_J-50">
          <mxGeometry y="26" width="140.00000000000003" height="20.895522388059703" as="geometry" />
        </mxCell>
        <mxCell id="0KsdpX5W5K9sVcAKfS_J-52" value="" style="whiteSpace=wrap;html=1;aspect=fixed;movable=1;resizable=1;rotatable=1;deletable=1;editable=1;locked=0;connectable=1;" vertex="1" parent="0KsdpX5W5K9sVcAKfS_J-51">
          <mxGeometry x="36.666666666666686" y="13" width="20.8955223880597" height="20.8955223880597" as="geometry" />
        </mxCell>
        <mxCell id="0KsdpX5W5K9sVcAKfS_J-54" value="" style="whiteSpace=wrap;html=1;aspect=fixed;movable=1;resizable=1;rotatable=1;deletable=1;editable=1;locked=0;connectable=1;" vertex="1" parent="0KsdpX5W5K9sVcAKfS_J-51">
          <mxGeometry x="73.33333333333337" y="13" width="20.8955223880597" height="20.8955223880597" as="geometry" />
        </mxCell>
        <mxCell id="0KsdpX5W5K9sVcAKfS_J-55" value="" style="group;movable=1;resizable=1;rotatable=1;deletable=1;editable=1;locked=0;connectable=1;" vertex="1" connectable="0" parent="1">
          <mxGeometry x="50" y="-1430" width="230" height="67" as="geometry" />
        </mxCell>
        <mxCell id="0KsdpX5W5K9sVcAKfS_J-56" value="String" style="swimlane;html=1;fontStyle=0;childLayout=stackLayout;horizontal=1;startSize=26;fillColor=none;horizontalStack=0;resizeParent=1;resizeLast=0;collapsible=1;marginBottom=0;swimlaneFillColor=#ffffff;rounded=0;shadow=0;comic=0;labelBackgroundColor=none;strokeWidth=1;fontFamily=Verdana;fontSize=10;align=center;movable=1;resizable=1;rotatable=1;deletable=1;editable=1;locked=0;connectable=1;" vertex="1" parent="0KsdpX5W5K9sVcAKfS_J-55">
          <mxGeometry width="229.99999999999997" height="67" as="geometry">
            <mxRectangle width="80" height="30" as="alternateBounds" />
          </mxGeometry>
        </mxCell>
        <mxCell id="0KsdpX5W5K9sVcAKfS_J-57" value="&quot;LA GRAN FLOTA BLANCA&quot;" style="text;html=1;align=center;verticalAlign=middle;whiteSpace=wrap;rounded=0;" vertex="1" parent="0KsdpX5W5K9sVcAKfS_J-56">
          <mxGeometry y="26" width="229.99999999999997" height="30" as="geometry" />
        </mxCell>
        <mxCell id="0KsdpX5W5K9sVcAKfS_J-75" style="edgeStyle=orthogonalEdgeStyle;rounded=0;orthogonalLoop=1;jettySize=auto;html=1;entryX=0.5;entryY=1;entryDx=0;entryDy=0;" edge="1" parent="1" source="0KsdpX5W5K9sVcAKfS_J-10" target="0KsdpX5W5K9sVcAKfS_J-25">
          <mxGeometry relative="1" as="geometry">
            <Array as="points">
              <mxPoint x="-10" y="-1388" />
            </Array>
          </mxGeometry>
        </mxCell>
        <mxCell id="0KsdpX5W5K9sVcAKfS_J-80" style="edgeStyle=orthogonalEdgeStyle;rounded=0;orthogonalLoop=1;jettySize=auto;html=1;entryX=0.5;entryY=0;entryDx=0;entryDy=0;" edge="1" parent="1" source="0KsdpX5W5K9sVcAKfS_J-27" target="0KsdpX5W5K9sVcAKfS_J-50">
          <mxGeometry relative="1" as="geometry" />
        </mxCell>
        <mxCell id="0KsdpX5W5K9sVcAKfS_J-83" style="edgeStyle=orthogonalEdgeStyle;rounded=0;orthogonalLoop=1;jettySize=auto;html=1;entryX=0.75;entryY=0;entryDx=0;entryDy=0;" edge="1" parent="1" source="0KsdpX5W5K9sVcAKfS_J-52" target="0KsdpX5W5K9sVcAKfS_J-5">
          <mxGeometry relative="1" as="geometry" />
        </mxCell>
        <mxCell id="0KsdpX5W5K9sVcAKfS_J-85" value="Fleet" style="swimlane;html=1;fontStyle=0;childLayout=stackLayout;horizontal=1;startSize=26;fillColor=none;horizontalStack=0;resizeParent=1;resizeLast=0;collapsible=1;marginBottom=0;swimlaneFillColor=#ffffff;rounded=0;shadow=0;comic=0;labelBackgroundColor=none;strokeWidth=1;fontFamily=Verdana;fontSize=10;align=center;" vertex="1" parent="1">
          <mxGeometry x="500" y="-1460" width="170" height="143" as="geometry" />
        </mxCell>
        <mxCell id="0KsdpX5W5K9sVcAKfS_J-86" value="" style="group" vertex="1" connectable="0" parent="0KsdpX5W5K9sVcAKfS_J-85">
          <mxGeometry y="26" width="170" height="26" as="geometry" />
        </mxCell>
        <mxCell id="0KsdpX5W5K9sVcAKfS_J-87" value="" style="whiteSpace=wrap;html=1;aspect=fixed;movable=1;resizable=1;rotatable=1;deletable=1;editable=1;locked=0;connectable=1;" vertex="1" parent="0KsdpX5W5K9sVcAKfS_J-86">
          <mxGeometry x="130" y="3" width="20" height="20" as="geometry" />
        </mxCell>
        <mxCell id="0KsdpX5W5K9sVcAKfS_J-88" value="&lt;div&gt;name&lt;/div&gt;" style="text;html=1;strokeColor=none;fillColor=none;align=left;verticalAlign=top;spacingLeft=4;spacingRight=4;whiteSpace=wrap;overflow=hidden;rotatable=0;points=[[0,0.5],[1,0.5]];portConstraint=eastwest;" vertex="1" parent="0KsdpX5W5K9sVcAKfS_J-86">
          <mxGeometry width="110" height="26" as="geometry" />
        </mxCell>
        <mxCell id="0KsdpX5W5K9sVcAKfS_J-89" value="" style="group" vertex="1" connectable="0" parent="0KsdpX5W5K9sVcAKfS_J-85">
          <mxGeometry y="52" width="170" height="26" as="geometry" />
        </mxCell>
        <mxCell id="0KsdpX5W5K9sVcAKfS_J-90" value="" style="whiteSpace=wrap;html=1;aspect=fixed;movable=1;resizable=1;rotatable=1;deletable=1;editable=1;locked=0;connectable=1;" vertex="1" parent="0KsdpX5W5K9sVcAKfS_J-89">
          <mxGeometry x="130" y="3" width="20" height="20" as="geometry" />
        </mxCell>
        <mxCell id="0KsdpX5W5K9sVcAKfS_J-91" value="&lt;div&gt;board&lt;/div&gt;" style="text;html=1;strokeColor=none;fillColor=none;align=left;verticalAlign=top;spacingLeft=4;spacingRight=4;whiteSpace=wrap;overflow=hidden;rotatable=0;points=[[0,0.5],[1,0.5]];portConstraint=eastwest;" vertex="1" parent="0KsdpX5W5K9sVcAKfS_J-89">
          <mxGeometry width="100" height="26" as="geometry" />
        </mxCell>
        <mxCell id="0KsdpX5W5K9sVcAKfS_J-92" value="" style="group" vertex="1" connectable="0" parent="0KsdpX5W5K9sVcAKfS_J-85">
          <mxGeometry y="78" width="170" height="26" as="geometry" />
        </mxCell>
        <mxCell id="0KsdpX5W5K9sVcAKfS_J-93" value="" style="whiteSpace=wrap;html=1;aspect=fixed;movable=1;resizable=1;rotatable=1;deletable=1;editable=1;locked=0;connectable=1;" vertex="1" parent="0KsdpX5W5K9sVcAKfS_J-92">
          <mxGeometry x="130" y="3" width="20" height="20" as="geometry" />
        </mxCell>
        <mxCell id="0KsdpX5W5K9sVcAKfS_J-94" value="&lt;div&gt;machines&lt;/div&gt;" style="text;html=1;strokeColor=none;fillColor=none;align=left;verticalAlign=top;spacingLeft=4;spacingRight=4;whiteSpace=wrap;overflow=hidden;rotatable=0;points=[[0,0.5],[1,0.5]];portConstraint=eastwest;" vertex="1" parent="0KsdpX5W5K9sVcAKfS_J-92">
          <mxGeometry width="90" height="26" as="geometry" />
        </mxCell>
        <mxCell id="0KsdpX5W5K9sVcAKfS_J-95" value="" style="group" vertex="1" connectable="0" parent="0KsdpX5W5K9sVcAKfS_J-85">
          <mxGeometry y="104" width="170" height="26" as="geometry" />
        </mxCell>
        <mxCell id="0KsdpX5W5K9sVcAKfS_J-96" value="" style="whiteSpace=wrap;html=1;aspect=fixed;movable=1;resizable=1;rotatable=1;deletable=1;editable=1;locked=0;connectable=1;" vertex="1" parent="0KsdpX5W5K9sVcAKfS_J-95">
          <mxGeometry x="130" y="3" width="20" height="20" as="geometry" />
        </mxCell>
        <mxCell id="0KsdpX5W5K9sVcAKfS_J-97" value="&lt;div&gt;sailors&lt;/div&gt;" style="text;html=1;strokeColor=none;fillColor=none;align=left;verticalAlign=top;spacingLeft=4;spacingRight=4;whiteSpace=wrap;overflow=hidden;rotatable=0;points=[[0,0.5],[1,0.5]];portConstraint=eastwest;" vertex="1" parent="0KsdpX5W5K9sVcAKfS_J-95">
          <mxGeometry width="100" height="26" as="geometry" />
        </mxCell>
        <mxCell id="0KsdpX5W5K9sVcAKfS_J-98" style="edgeStyle=orthogonalEdgeStyle;rounded=0;orthogonalLoop=1;jettySize=auto;html=1;entryX=0;entryY=0.5;entryDx=0;entryDy=0;" edge="1" parent="1" source="0KsdpX5W5K9sVcAKfS_J-7" target="0KsdpX5W5K9sVcAKfS_J-57">
          <mxGeometry relative="1" as="geometry" />
        </mxCell>
        <mxCell id="0KsdpX5W5K9sVcAKfS_J-99" style="edgeStyle=orthogonalEdgeStyle;rounded=0;orthogonalLoop=1;jettySize=auto;html=1;" edge="1" parent="1" source="0KsdpX5W5K9sVcAKfS_J-54" target="0KsdpX5W5K9sVcAKfS_J-85">
          <mxGeometry relative="1" as="geometry" />
        </mxCell>
        <mxCell id="0KsdpX5W5K9sVcAKfS_J-100" value="" style="group;movable=1;resizable=1;rotatable=1;deletable=1;editable=1;locked=0;connectable=1;" vertex="1" connectable="0" parent="1">
          <mxGeometry x="870" y="-1459" width="230" height="67" as="geometry" />
        </mxCell>
        <mxCell id="0KsdpX5W5K9sVcAKfS_J-101" value="String" style="swimlane;html=1;fontStyle=0;childLayout=stackLayout;horizontal=1;startSize=26;fillColor=none;horizontalStack=0;resizeParent=1;resizeLast=0;collapsible=1;marginBottom=0;swimlaneFillColor=#ffffff;rounded=0;shadow=0;comic=0;labelBackgroundColor=none;strokeWidth=1;fontFamily=Verdana;fontSize=10;align=center;movable=1;resizable=1;rotatable=1;deletable=1;editable=1;locked=0;connectable=1;" vertex="1" parent="0KsdpX5W5K9sVcAKfS_J-100">
          <mxGeometry width="229.99999999999997" height="67" as="geometry">
            <mxRectangle width="80" height="30" as="alternateBounds" />
          </mxGeometry>
        </mxCell>
        <mxCell id="0KsdpX5W5K9sVcAKfS_J-102" value="&quot;LA GRAN ARMADA DE CASTILLA&quot;" style="text;html=1;align=center;verticalAlign=middle;whiteSpace=wrap;rounded=0;" vertex="1" parent="0KsdpX5W5K9sVcAKfS_J-101">
          <mxGeometry y="26" width="229.99999999999997" height="30" as="geometry" />
        </mxCell>
        <mxCell id="0KsdpX5W5K9sVcAKfS_J-103" style="edgeStyle=orthogonalEdgeStyle;rounded=0;orthogonalLoop=1;jettySize=auto;html=1;entryX=0;entryY=0.25;entryDx=0;entryDy=0;" edge="1" parent="1" source="0KsdpX5W5K9sVcAKfS_J-87" target="0KsdpX5W5K9sVcAKfS_J-102">
          <mxGeometry relative="1" as="geometry" />
        </mxCell>
        <mxCell id="0KsdpX5W5K9sVcAKfS_J-104" style="edgeStyle=orthogonalEdgeStyle;rounded=0;orthogonalLoop=1;jettySize=auto;html=1;entryX=0.75;entryY=0;entryDx=0;entryDy=0;" edge="1" parent="1" source="0KsdpX5W5K9sVcAKfS_J-90" target="0KsdpX5W5K9sVcAKfS_J-25">
          <mxGeometry relative="1" as="geometry">
            <Array as="points">
              <mxPoint x="740" y="-1395" />
              <mxPoint x="740" y="-1660" />
              <mxPoint x="30" y="-1660" />
            </Array>
          </mxGeometry>
        </mxCell>
        <mxCell id="0KsdpX5W5K9sVcAKfS_J-105" value="Ship" style="swimlane;html=1;fontStyle=0;childLayout=stackLayout;horizontal=1;startSize=26;fillColor=none;horizontalStack=0;resizeParent=1;resizeLast=0;collapsible=1;marginBottom=0;swimlaneFillColor=#ffffff;rounded=0;shadow=0;comic=0;labelBackgroundColor=none;strokeWidth=1;fontFamily=Verdana;fontSize=10;align=center;" vertex="1" parent="1">
          <mxGeometry x="1150" y="-1247" width="170" height="137" as="geometry" />
        </mxCell>
        <mxCell id="0KsdpX5W5K9sVcAKfS_J-135" value="" style="group" vertex="1" connectable="0" parent="0KsdpX5W5K9sVcAKfS_J-105">
          <mxGeometry y="26" width="170" height="26" as="geometry" />
        </mxCell>
        <mxCell id="0KsdpX5W5K9sVcAKfS_J-136" value="900" style="whiteSpace=wrap;html=1;aspect=fixed;movable=1;resizable=1;rotatable=1;deletable=1;editable=1;locked=0;connectable=1;" vertex="1" parent="0KsdpX5W5K9sVcAKfS_J-135">
          <mxGeometry x="130" y="3" width="20" height="20" as="geometry" />
        </mxCell>
        <mxCell id="0KsdpX5W5K9sVcAKfS_J-137" value="&lt;div&gt;code&lt;/div&gt;" style="text;html=1;strokeColor=none;fillColor=none;align=left;verticalAlign=top;spacingLeft=4;spacingRight=4;whiteSpace=wrap;overflow=hidden;rotatable=0;points=[[0,0.5],[1,0.5]];portConstraint=eastwest;" vertex="1" parent="0KsdpX5W5K9sVcAKfS_J-135">
          <mxGeometry width="100" height="26" as="geometry" />
        </mxCell>
        <mxCell id="0KsdpX5W5K9sVcAKfS_J-106" value="" style="group" vertex="1" connectable="0" parent="0KsdpX5W5K9sVcAKfS_J-105">
          <mxGeometry y="52" width="170" height="26" as="geometry" />
        </mxCell>
        <mxCell id="0KsdpX5W5K9sVcAKfS_J-107" value="" style="whiteSpace=wrap;html=1;aspect=fixed;movable=1;resizable=1;rotatable=1;deletable=1;editable=1;locked=0;connectable=1;" vertex="1" parent="0KsdpX5W5K9sVcAKfS_J-106">
          <mxGeometry x="130" y="3" width="20" height="20" as="geometry" />
        </mxCell>
        <mxCell id="0KsdpX5W5K9sVcAKfS_J-108" value="&lt;div&gt;location&lt;/div&gt;" style="text;html=1;strokeColor=none;fillColor=none;align=left;verticalAlign=top;spacingLeft=4;spacingRight=4;whiteSpace=wrap;overflow=hidden;rotatable=0;points=[[0,0.5],[1,0.5]];portConstraint=eastwest;" vertex="1" parent="0KsdpX5W5K9sVcAKfS_J-106">
          <mxGeometry width="110" height="26" as="geometry" />
        </mxCell>
        <mxCell id="0KsdpX5W5K9sVcAKfS_J-115" value="" style="group" vertex="1" connectable="0" parent="0KsdpX5W5K9sVcAKfS_J-105">
          <mxGeometry y="78" width="170" height="26" as="geometry" />
        </mxCell>
        <mxCell id="0KsdpX5W5K9sVcAKfS_J-116" value="" style="whiteSpace=wrap;html=1;aspect=fixed;movable=1;resizable=1;rotatable=1;deletable=1;editable=1;locked=0;connectable=1;" vertex="1" parent="0KsdpX5W5K9sVcAKfS_J-115">
          <mxGeometry x="130" y="3" width="20" height="20" as="geometry" />
        </mxCell>
        <mxCell id="0KsdpX5W5K9sVcAKfS_J-117" value="&lt;div&gt;sailors&lt;/div&gt;" style="text;html=1;strokeColor=none;fillColor=none;align=left;verticalAlign=top;spacingLeft=4;spacingRight=4;whiteSpace=wrap;overflow=hidden;rotatable=0;points=[[0,0.5],[1,0.5]];portConstraint=eastwest;" vertex="1" parent="0KsdpX5W5K9sVcAKfS_J-115">
          <mxGeometry width="100" height="26" as="geometry" />
        </mxCell>
        <mxCell id="0KsdpX5W5K9sVcAKfS_J-199" value="" style="group" vertex="1" connectable="0" parent="0KsdpX5W5K9sVcAKfS_J-105">
          <mxGeometry y="104" width="170" height="26" as="geometry" />
        </mxCell>
        <mxCell id="0KsdpX5W5K9sVcAKfS_J-200" value="" style="whiteSpace=wrap;html=1;aspect=fixed;movable=1;resizable=1;rotatable=1;deletable=1;editable=1;locked=0;connectable=1;" vertex="1" parent="0KsdpX5W5K9sVcAKfS_J-199">
          <mxGeometry x="130" y="3" width="20" height="20" as="geometry" />
        </mxCell>
        <mxCell id="0KsdpX5W5K9sVcAKfS_J-201" value="&lt;div&gt;name&lt;/div&gt;" style="text;html=1;strokeColor=none;fillColor=none;align=left;verticalAlign=top;spacingLeft=4;spacingRight=4;whiteSpace=wrap;overflow=hidden;rotatable=0;points=[[0,0.5],[1,0.5]];portConstraint=eastwest;" vertex="1" parent="0KsdpX5W5K9sVcAKfS_J-199">
          <mxGeometry width="100" height="26" as="geometry" />
        </mxCell>
        <mxCell id="0KsdpX5W5K9sVcAKfS_J-128" value="AircraftCarrier" style="swimlane;html=1;fontStyle=0;childLayout=stackLayout;horizontal=1;startSize=26;fillColor=none;horizontalStack=0;resizeParent=1;resizeLast=0;collapsible=1;marginBottom=0;swimlaneFillColor=#ffffff;rounded=0;shadow=0;comic=0;labelBackgroundColor=none;strokeWidth=1;fontFamily=Verdana;fontSize=10;align=center;" vertex="1" parent="1">
          <mxGeometry x="1330" y="-1060" width="170" height="190" as="geometry" />
        </mxCell>
        <mxCell id="0KsdpX5W5K9sVcAKfS_J-129" value="" style="group" vertex="1" connectable="0" parent="0KsdpX5W5K9sVcAKfS_J-128">
          <mxGeometry y="26" width="170" height="26" as="geometry" />
        </mxCell>
        <mxCell id="0KsdpX5W5K9sVcAKfS_J-130" value="333" style="whiteSpace=wrap;html=1;aspect=fixed;movable=1;resizable=1;rotatable=1;deletable=1;editable=1;locked=0;connectable=1;" vertex="1" parent="0KsdpX5W5K9sVcAKfS_J-129">
          <mxGeometry x="130" y="3" width="20" height="20" as="geometry" />
        </mxCell>
        <mxCell id="0KsdpX5W5K9sVcAKfS_J-131" value="&lt;div&gt;code&lt;/div&gt;" style="text;html=1;strokeColor=none;fillColor=none;align=left;verticalAlign=top;spacingLeft=4;spacingRight=4;whiteSpace=wrap;overflow=hidden;rotatable=0;points=[[0,0.5],[1,0.5]];portConstraint=eastwest;" vertex="1" parent="0KsdpX5W5K9sVcAKfS_J-129">
          <mxGeometry width="110" height="26" as="geometry" />
        </mxCell>
        <mxCell id="0KsdpX5W5K9sVcAKfS_J-132" value="" style="group" vertex="1" connectable="0" parent="0KsdpX5W5K9sVcAKfS_J-128">
          <mxGeometry y="52" width="170" height="26" as="geometry" />
        </mxCell>
        <mxCell id="0KsdpX5W5K9sVcAKfS_J-133" value="" style="whiteSpace=wrap;html=1;aspect=fixed;movable=1;resizable=1;rotatable=1;deletable=1;editable=1;locked=0;connectable=1;" vertex="1" parent="0KsdpX5W5K9sVcAKfS_J-132">
          <mxGeometry x="130" y="3" width="20" height="20" as="geometry" />
        </mxCell>
        <mxCell id="0KsdpX5W5K9sVcAKfS_J-134" value="&lt;div&gt;capcity&lt;/div&gt;" style="text;html=1;strokeColor=none;fillColor=none;align=left;verticalAlign=top;spacingLeft=4;spacingRight=4;whiteSpace=wrap;overflow=hidden;rotatable=0;points=[[0,0.5],[1,0.5]];portConstraint=eastwest;" vertex="1" parent="0KsdpX5W5K9sVcAKfS_J-132">
          <mxGeometry width="100" height="26" as="geometry" />
        </mxCell>
        <mxCell id="0KsdpX5W5K9sVcAKfS_J-138" value="" style="group" vertex="1" connectable="0" parent="0KsdpX5W5K9sVcAKfS_J-128">
          <mxGeometry y="78" width="170" height="26" as="geometry" />
        </mxCell>
        <mxCell id="0KsdpX5W5K9sVcAKfS_J-139" value="" style="whiteSpace=wrap;html=1;aspect=fixed;movable=1;resizable=1;rotatable=1;deletable=1;editable=1;locked=0;connectable=1;" vertex="1" parent="0KsdpX5W5K9sVcAKfS_J-138">
          <mxGeometry x="130" y="3" width="20" height="20" as="geometry" />
        </mxCell>
        <mxCell id="0KsdpX5W5K9sVcAKfS_J-140" value="&lt;div&gt;sailors&lt;/div&gt;" style="text;html=1;strokeColor=none;fillColor=none;align=left;verticalAlign=top;spacingLeft=4;spacingRight=4;whiteSpace=wrap;overflow=hidden;rotatable=0;points=[[0,0.5],[1,0.5]];portConstraint=eastwest;" vertex="1" parent="0KsdpX5W5K9sVcAKfS_J-138">
          <mxGeometry width="100" height="26" as="geometry" />
        </mxCell>
        <mxCell id="0KsdpX5W5K9sVcAKfS_J-145" value="" style="group" vertex="1" connectable="0" parent="0KsdpX5W5K9sVcAKfS_J-128">
          <mxGeometry y="104" width="170" height="26" as="geometry" />
        </mxCell>
        <mxCell id="0KsdpX5W5K9sVcAKfS_J-146" value="" style="whiteSpace=wrap;html=1;aspect=fixed;movable=1;resizable=1;rotatable=1;deletable=1;editable=1;locked=0;connectable=1;" vertex="1" parent="0KsdpX5W5K9sVcAKfS_J-145">
          <mxGeometry x="130" y="3" width="20" height="20" as="geometry" />
        </mxCell>
        <mxCell id="0KsdpX5W5K9sVcAKfS_J-147" value="&lt;div&gt;airPlanes&lt;/div&gt;" style="text;html=1;strokeColor=none;fillColor=none;align=left;verticalAlign=top;spacingLeft=4;spacingRight=4;whiteSpace=wrap;overflow=hidden;rotatable=0;points=[[0,0.5],[1,0.5]];portConstraint=eastwest;" vertex="1" parent="0KsdpX5W5K9sVcAKfS_J-145">
          <mxGeometry width="100" height="26" as="geometry" />
        </mxCell>
        <mxCell id="0KsdpX5W5K9sVcAKfS_J-141" value="" style="group" vertex="1" connectable="0" parent="0KsdpX5W5K9sVcAKfS_J-128">
          <mxGeometry y="130" width="170" height="26" as="geometry" />
        </mxCell>
        <mxCell id="0KsdpX5W5K9sVcAKfS_J-142" value="" style="whiteSpace=wrap;html=1;aspect=fixed;movable=1;resizable=1;rotatable=1;deletable=1;editable=1;locked=0;connectable=1;" vertex="1" parent="0KsdpX5W5K9sVcAKfS_J-141">
          <mxGeometry x="130" y="3" width="20" height="20" as="geometry" />
        </mxCell>
        <mxCell id="0KsdpX5W5K9sVcAKfS_J-143" value="&lt;div&gt;location&lt;/div&gt;" style="text;html=1;strokeColor=none;fillColor=none;align=left;verticalAlign=top;spacingLeft=4;spacingRight=4;whiteSpace=wrap;overflow=hidden;rotatable=0;points=[[0,0.5],[1,0.5]];portConstraint=eastwest;" vertex="1" parent="0KsdpX5W5K9sVcAKfS_J-141">
          <mxGeometry width="100" height="26" as="geometry" />
        </mxCell>
        <mxCell id="0KsdpX5W5K9sVcAKfS_J-202" value="" style="group" vertex="1" connectable="0" parent="0KsdpX5W5K9sVcAKfS_J-128">
          <mxGeometry y="156" width="170" height="26" as="geometry" />
        </mxCell>
        <mxCell id="0KsdpX5W5K9sVcAKfS_J-203" value="" style="whiteSpace=wrap;html=1;aspect=fixed;movable=1;resizable=1;rotatable=1;deletable=1;editable=1;locked=0;connectable=1;" vertex="1" parent="0KsdpX5W5K9sVcAKfS_J-202">
          <mxGeometry x="130" y="3" width="20" height="20" as="geometry" />
        </mxCell>
        <mxCell id="0KsdpX5W5K9sVcAKfS_J-204" value="&lt;div&gt;name&lt;/div&gt;" style="text;html=1;strokeColor=none;fillColor=none;align=left;verticalAlign=top;spacingLeft=4;spacingRight=4;whiteSpace=wrap;overflow=hidden;rotatable=0;points=[[0,0.5],[1,0.5]];portConstraint=eastwest;" vertex="1" parent="0KsdpX5W5K9sVcAKfS_J-202">
          <mxGeometry width="100" height="26" as="geometry" />
        </mxCell>
        <mxCell id="0KsdpX5W5K9sVcAKfS_J-152" value="ArrayList" style="swimlane;whiteSpace=wrap;html=1;" vertex="1" parent="1">
          <mxGeometry x="830" y="-1317" width="200" height="70" as="geometry" />
        </mxCell>
        <mxCell id="0KsdpX5W5K9sVcAKfS_J-148" value="" style="whiteSpace=wrap;html=1;aspect=fixed;movable=1;resizable=1;rotatable=1;deletable=1;editable=1;locked=0;connectable=1;" vertex="1" parent="0KsdpX5W5K9sVcAKfS_J-152">
          <mxGeometry x="49.10030303030294" y="33.09999999999991" width="20.8955223880597" height="20.8955223880597" as="geometry" />
        </mxCell>
        <mxCell id="0KsdpX5W5K9sVcAKfS_J-156" value="" style="whiteSpace=wrap;html=1;aspect=fixed;movable=1;resizable=1;rotatable=1;deletable=1;editable=1;locked=0;connectable=1;" vertex="1" parent="0KsdpX5W5K9sVcAKfS_J-152">
          <mxGeometry x="89.55030303030298" y="33.09999999999991" width="20.8955223880597" height="20.8955223880597" as="geometry" />
        </mxCell>
        <mxCell id="0KsdpX5W5K9sVcAKfS_J-157" value="" style="whiteSpace=wrap;html=1;aspect=fixed;movable=1;resizable=1;rotatable=1;deletable=1;editable=1;locked=0;connectable=1;" vertex="1" parent="0KsdpX5W5K9sVcAKfS_J-152">
          <mxGeometry x="129.10030303030305" y="33.09999999999991" width="20.8955223880597" height="20.8955223880597" as="geometry" />
        </mxCell>
        <mxCell id="0KsdpX5W5K9sVcAKfS_J-160" style="edgeStyle=orthogonalEdgeStyle;rounded=0;orthogonalLoop=1;jettySize=auto;html=1;entryX=0.5;entryY=0;entryDx=0;entryDy=0;" edge="1" parent="1" source="0KsdpX5W5K9sVcAKfS_J-93" target="0KsdpX5W5K9sVcAKfS_J-152">
          <mxGeometry relative="1" as="geometry">
            <mxPoint x="830" y="-1273" as="targetPoint" />
          </mxGeometry>
        </mxCell>
        <mxCell id="0KsdpX5W5K9sVcAKfS_J-161" style="edgeStyle=orthogonalEdgeStyle;rounded=0;orthogonalLoop=1;jettySize=auto;html=1;entryX=0;entryY=0.5;entryDx=0;entryDy=0;" edge="1" parent="1" source="0KsdpX5W5K9sVcAKfS_J-156" target="0KsdpX5W5K9sVcAKfS_J-147">
          <mxGeometry relative="1" as="geometry" />
        </mxCell>
        <mxCell id="0KsdpX5W5K9sVcAKfS_J-163" style="edgeStyle=orthogonalEdgeStyle;rounded=0;orthogonalLoop=1;jettySize=auto;html=1;entryX=0.5;entryY=0;entryDx=0;entryDy=0;" edge="1" parent="1" source="0KsdpX5W5K9sVcAKfS_J-157" target="0KsdpX5W5K9sVcAKfS_J-105">
          <mxGeometry relative="1" as="geometry" />
        </mxCell>
        <mxCell id="0KsdpX5W5K9sVcAKfS_J-164" value="Plane" style="swimlane;html=1;fontStyle=0;childLayout=stackLayout;horizontal=1;startSize=26;fillColor=none;horizontalStack=0;resizeParent=1;resizeLast=0;collapsible=1;marginBottom=0;swimlaneFillColor=#ffffff;rounded=0;shadow=0;comic=0;labelBackgroundColor=none;strokeWidth=1;fontFamily=Verdana;fontSize=10;align=center;" vertex="1" parent="1">
          <mxGeometry x="1840" y="-1363" width="170" height="223" as="geometry" />
        </mxCell>
        <mxCell id="0KsdpX5W5K9sVcAKfS_J-165" value="" style="group" vertex="1" connectable="0" parent="0KsdpX5W5K9sVcAKfS_J-164">
          <mxGeometry y="26" width="170" height="26" as="geometry" />
        </mxCell>
        <mxCell id="0KsdpX5W5K9sVcAKfS_J-166" value="" style="whiteSpace=wrap;html=1;aspect=fixed;movable=1;resizable=1;rotatable=1;deletable=1;editable=1;locked=0;connectable=1;" vertex="1" parent="0KsdpX5W5K9sVcAKfS_J-165">
          <mxGeometry x="130" y="3" width="20" height="20" as="geometry" />
        </mxCell>
        <mxCell id="0KsdpX5W5K9sVcAKfS_J-167" value="&lt;div&gt;plate&lt;/div&gt;" style="text;html=1;strokeColor=none;fillColor=none;align=left;verticalAlign=top;spacingLeft=4;spacingRight=4;whiteSpace=wrap;overflow=hidden;rotatable=0;points=[[0,0.5],[1,0.5]];portConstraint=eastwest;" vertex="1" parent="0KsdpX5W5K9sVcAKfS_J-165">
          <mxGeometry width="110" height="26" as="geometry" />
        </mxCell>
        <mxCell id="0KsdpX5W5K9sVcAKfS_J-168" value="" style="group" vertex="1" connectable="0" parent="0KsdpX5W5K9sVcAKfS_J-164">
          <mxGeometry y="52" width="170" height="26" as="geometry" />
        </mxCell>
        <mxCell id="0KsdpX5W5K9sVcAKfS_J-169" value="True" style="whiteSpace=wrap;html=1;aspect=fixed;movable=1;resizable=1;rotatable=1;deletable=1;editable=1;locked=0;connectable=1;" vertex="1" parent="0KsdpX5W5K9sVcAKfS_J-168">
          <mxGeometry x="130" y="3" width="20" height="20" as="geometry" />
        </mxCell>
        <mxCell id="0KsdpX5W5K9sVcAKfS_J-170" value="&lt;div&gt;inAir&lt;/div&gt;" style="text;html=1;strokeColor=none;fillColor=none;align=left;verticalAlign=top;spacingLeft=4;spacingRight=4;whiteSpace=wrap;overflow=hidden;rotatable=0;points=[[0,0.5],[1,0.5]];portConstraint=eastwest;" vertex="1" parent="0KsdpX5W5K9sVcAKfS_J-168">
          <mxGeometry width="100" height="26" as="geometry" />
        </mxCell>
        <mxCell id="0KsdpX5W5K9sVcAKfS_J-171" value="" style="group" vertex="1" connectable="0" parent="0KsdpX5W5K9sVcAKfS_J-164">
          <mxGeometry y="78" width="170" height="26" as="geometry" />
        </mxCell>
        <mxCell id="0KsdpX5W5K9sVcAKfS_J-172" value="" style="whiteSpace=wrap;html=1;aspect=fixed;movable=1;resizable=1;rotatable=1;deletable=1;editable=1;locked=0;connectable=1;" vertex="1" parent="0KsdpX5W5K9sVcAKfS_J-171">
          <mxGeometry x="130" y="3" width="20" height="20" as="geometry" />
        </mxCell>
        <mxCell id="0KsdpX5W5K9sVcAKfS_J-173" value="&lt;div&gt;location&lt;/div&gt;" style="text;html=1;strokeColor=none;fillColor=none;align=left;verticalAlign=top;spacingLeft=4;spacingRight=4;whiteSpace=wrap;overflow=hidden;rotatable=0;points=[[0,0.5],[1,0.5]];portConstraint=eastwest;" vertex="1" parent="0KsdpX5W5K9sVcAKfS_J-171">
          <mxGeometry width="100" height="26" as="geometry" />
        </mxCell>
        <mxCell id="0KsdpX5W5K9sVcAKfS_J-174" value="" style="group" vertex="1" connectable="0" parent="0KsdpX5W5K9sVcAKfS_J-164">
          <mxGeometry y="104" width="170" height="26" as="geometry" />
        </mxCell>
        <mxCell id="0KsdpX5W5K9sVcAKfS_J-175" value="" style="whiteSpace=wrap;html=1;aspect=fixed;movable=1;resizable=1;rotatable=1;deletable=1;editable=1;locked=0;connectable=1;" vertex="1" parent="0KsdpX5W5K9sVcAKfS_J-174">
          <mxGeometry x="130" y="3" width="20" height="20" as="geometry" />
        </mxCell>
        <mxCell id="0KsdpX5W5K9sVcAKfS_J-176" value="&lt;div&gt;pilot&lt;/div&gt;" style="text;html=1;strokeColor=none;fillColor=none;align=left;verticalAlign=top;spacingLeft=4;spacingRight=4;whiteSpace=wrap;overflow=hidden;rotatable=0;points=[[0,0.5],[1,0.5]];portConstraint=eastwest;" vertex="1" parent="0KsdpX5W5K9sVcAKfS_J-174">
          <mxGeometry width="100" height="26" as="geometry" />
        </mxCell>
        <mxCell id="0KsdpX5W5K9sVcAKfS_J-177" value="" style="group" vertex="1" connectable="0" parent="0KsdpX5W5K9sVcAKfS_J-164">
          <mxGeometry y="130" width="170" height="26" as="geometry" />
        </mxCell>
        <mxCell id="0KsdpX5W5K9sVcAKfS_J-178" value="" style="whiteSpace=wrap;html=1;aspect=fixed;movable=1;resizable=1;rotatable=1;deletable=1;editable=1;locked=0;connectable=1;" vertex="1" parent="0KsdpX5W5K9sVcAKfS_J-177">
          <mxGeometry x="130" y="3" width="20" height="20" as="geometry" />
        </mxCell>
        <mxCell id="0KsdpX5W5K9sVcAKfS_J-179" value="&lt;div&gt;copilot&lt;/div&gt;" style="text;html=1;strokeColor=none;fillColor=none;align=left;verticalAlign=top;spacingLeft=4;spacingRight=4;whiteSpace=wrap;overflow=hidden;rotatable=0;points=[[0,0.5],[1,0.5]];portConstraint=eastwest;" vertex="1" parent="0KsdpX5W5K9sVcAKfS_J-177">
          <mxGeometry width="100" height="26" as="geometry" />
        </mxCell>
        <mxCell id="0KsdpX5W5K9sVcAKfS_J-205" value="" style="group" vertex="1" connectable="0" parent="0KsdpX5W5K9sVcAKfS_J-164">
          <mxGeometry y="156" width="170" height="26" as="geometry" />
        </mxCell>
        <mxCell id="0KsdpX5W5K9sVcAKfS_J-206" value="" style="whiteSpace=wrap;html=1;aspect=fixed;movable=1;resizable=1;rotatable=1;deletable=1;editable=1;locked=0;connectable=1;" vertex="1" parent="0KsdpX5W5K9sVcAKfS_J-205">
          <mxGeometry x="130" y="3" width="20" height="20" as="geometry" />
        </mxCell>
        <mxCell id="0KsdpX5W5K9sVcAKfS_J-207" value="&lt;div&gt;name&lt;/div&gt;" style="text;html=1;strokeColor=none;fillColor=none;align=left;verticalAlign=top;spacingLeft=4;spacingRight=4;whiteSpace=wrap;overflow=hidden;rotatable=0;points=[[0,0.5],[1,0.5]];portConstraint=eastwest;" vertex="1" parent="0KsdpX5W5K9sVcAKfS_J-205">
          <mxGeometry width="100" height="26" as="geometry" />
        </mxCell>
        <mxCell id="0KsdpX5W5K9sVcAKfS_J-185" value="" style="group" vertex="1" connectable="0" parent="0KsdpX5W5K9sVcAKfS_J-164">
          <mxGeometry y="182" width="170" height="26" as="geometry" />
        </mxCell>
        <mxCell id="0KsdpX5W5K9sVcAKfS_J-186" value="" style="whiteSpace=wrap;html=1;aspect=fixed;movable=1;resizable=1;rotatable=1;deletable=1;editable=1;locked=0;connectable=1;" vertex="1" parent="0KsdpX5W5K9sVcAKfS_J-185">
          <mxGeometry x="130" y="3" width="20" height="20" as="geometry" />
        </mxCell>
        <mxCell id="0KsdpX5W5K9sVcAKfS_J-187" value="&lt;div&gt;code&lt;/div&gt;" style="text;html=1;strokeColor=none;fillColor=none;align=left;verticalAlign=top;spacingLeft=4;spacingRight=4;whiteSpace=wrap;overflow=hidden;rotatable=0;points=[[0,0.5],[1,0.5]];portConstraint=eastwest;" vertex="1" parent="0KsdpX5W5K9sVcAKfS_J-185">
          <mxGeometry width="100" height="26" as="geometry" />
        </mxCell>
        <mxCell id="0KsdpX5W5K9sVcAKfS_J-180" value="ArrayList" style="swimlane;whiteSpace=wrap;html=1;" vertex="1" parent="1">
          <mxGeometry x="1520" y="-1190" width="200" height="70" as="geometry" />
        </mxCell>
        <mxCell id="0KsdpX5W5K9sVcAKfS_J-181" value="" style="whiteSpace=wrap;html=1;aspect=fixed;movable=1;resizable=1;rotatable=1;deletable=1;editable=1;locked=0;connectable=1;" vertex="1" parent="0KsdpX5W5K9sVcAKfS_J-180">
          <mxGeometry x="49.10030303030294" y="33.09999999999991" width="20.8955223880597" height="20.8955223880597" as="geometry" />
        </mxCell>
        <mxCell id="0KsdpX5W5K9sVcAKfS_J-182" value="" style="whiteSpace=wrap;html=1;aspect=fixed;movable=1;resizable=1;rotatable=1;deletable=1;editable=1;locked=0;connectable=1;" vertex="1" parent="0KsdpX5W5K9sVcAKfS_J-180">
          <mxGeometry x="89.55030303030298" y="33.09999999999991" width="20.8955223880597" height="20.8955223880597" as="geometry" />
        </mxCell>
        <mxCell id="0KsdpX5W5K9sVcAKfS_J-183" value="" style="whiteSpace=wrap;html=1;aspect=fixed;movable=1;resizable=1;rotatable=1;deletable=1;editable=1;locked=0;connectable=1;" vertex="1" parent="0KsdpX5W5K9sVcAKfS_J-180">
          <mxGeometry x="129.10030303030305" y="33.09999999999991" width="20.8955223880597" height="20.8955223880597" as="geometry" />
        </mxCell>
        <mxCell id="0KsdpX5W5K9sVcAKfS_J-184" style="edgeStyle=orthogonalEdgeStyle;rounded=0;orthogonalLoop=1;jettySize=auto;html=1;entryX=0.25;entryY=1;entryDx=0;entryDy=0;" edge="1" parent="1" source="0KsdpX5W5K9sVcAKfS_J-146" target="0KsdpX5W5K9sVcAKfS_J-180">
          <mxGeometry relative="1" as="geometry" />
        </mxCell>
        <mxCell id="0KsdpX5W5K9sVcAKfS_J-188" style="edgeStyle=orthogonalEdgeStyle;rounded=0;orthogonalLoop=1;jettySize=auto;html=1;entryX=0;entryY=-0.115;entryDx=0;entryDy=0;entryPerimeter=0;" edge="1" parent="1" source="0KsdpX5W5K9sVcAKfS_J-183" target="0KsdpX5W5K9sVcAKfS_J-167">
          <mxGeometry relative="1" as="geometry" />
        </mxCell>
        <mxCell id="0KsdpX5W5K9sVcAKfS_J-189" value="" style="group;movable=1;resizable=1;rotatable=1;deletable=1;editable=1;locked=0;connectable=1;" vertex="1" connectable="0" parent="1">
          <mxGeometry x="2130" y="-1257" width="230" height="57" as="geometry" />
        </mxCell>
        <mxCell id="0KsdpX5W5K9sVcAKfS_J-190" value="String" style="swimlane;html=1;fontStyle=0;childLayout=stackLayout;horizontal=1;startSize=26;fillColor=none;horizontalStack=0;resizeParent=1;resizeLast=0;collapsible=1;marginBottom=0;swimlaneFillColor=#ffffff;rounded=0;shadow=0;comic=0;labelBackgroundColor=none;strokeWidth=1;fontFamily=Verdana;fontSize=10;align=center;movable=1;resizable=1;rotatable=1;deletable=1;editable=1;locked=0;connectable=1;" vertex="1" parent="0KsdpX5W5K9sVcAKfS_J-189">
          <mxGeometry width="229.99999999999997" height="57" as="geometry">
            <mxRectangle width="80" height="30" as="alternateBounds" />
          </mxGeometry>
        </mxCell>
        <mxCell id="0KsdpX5W5K9sVcAKfS_J-191" value="&quot;chkgood&quot;" style="text;html=1;align=center;verticalAlign=middle;whiteSpace=wrap;rounded=0;" vertex="1" parent="0KsdpX5W5K9sVcAKfS_J-190">
          <mxGeometry y="26" width="229.99999999999997" height="25.52238805970149" as="geometry" />
        </mxCell>
        <mxCell id="0KsdpX5W5K9sVcAKfS_J-208" style="edgeStyle=orthogonalEdgeStyle;rounded=0;orthogonalLoop=1;jettySize=auto;html=1;entryX=0;entryY=0.25;entryDx=0;entryDy=0;" edge="1" parent="1" source="0KsdpX5W5K9sVcAKfS_J-206" target="0KsdpX5W5K9sVcAKfS_J-191">
          <mxGeometry relative="1" as="geometry" />
        </mxCell>
        <mxCell id="0KsdpX5W5K9sVcAKfS_J-209" style="edgeStyle=orthogonalEdgeStyle;rounded=0;orthogonalLoop=1;jettySize=auto;html=1;entryX=0.5;entryY=0;entryDx=0;entryDy=0;" edge="1" parent="1" source="0KsdpX5W5K9sVcAKfS_J-148" target="0KsdpX5W5K9sVcAKfS_J-164">
          <mxGeometry relative="1" as="geometry">
            <Array as="points">
              <mxPoint x="890" y="-1383" />
              <mxPoint x="1925" y="-1383" />
            </Array>
          </mxGeometry>
        </mxCell>
      </root>
    </mxGraphModel>
  </diagram>
</mxfile>
